HIERARCHY
ROOT root     
{
	OFFSET 0.0000 0.0000 0.0000
	CHANNELS 6 Xposition Yposition Zposition Zrotation Yrotation Xrotation
	JOINT pelvis   
	{
		OFFSET 0.0000 0.0000 0.0000
		CHANNELS 3 Zrotation Yrotation Xrotation
		JOINT thorax   
		{
			OFFSET 0.0000 23.0750 -5.0000
			CHANNELS 3 Zrotation Yrotation Xrotation
			JOINT rclavicle
			{
				OFFSET 0.0000 28.0009 0.0000
				CHANNELS 3 Zrotation Yrotation Xrotation
				JOINT rhumerus 
				{
					OFFSET -18.5725 5.5939 0.0000
					CHANNELS 3 Zrotation Yrotation Xrotation
					JOINT rradius  
					{
						OFFSET -24.8459 0.0000 0.0000
						CHANNELS 3 Zrotation Yrotation Xrotation
						JOINT rhand    
						{
							OFFSET -24.5477 0.0000 0.0000
							CHANNELS 3 Zrotation Yrotation Xrotation
							End Site
							{
								OFFSET -8.1826 0.0000 0.0000
							}
						}
					}
				}
			}
			JOINT lclavicle
			{
				OFFSET 0.0000 28.0009 0.0000
				CHANNELS 3 Zrotation Yrotation Xrotation
				JOINT lhumerus 
				{
					OFFSET 18.5725 5.5939 0.0000
					CHANNELS 3 Zrotation Yrotation Xrotation
					JOINT lradius  
					{
						OFFSET 24.8459 0.0000 0.0000
						CHANNELS 3 Zrotation Yrotation Xrotation
						JOINT lhand    
						{
							OFFSET 24.5477 0.0000 0.0000
							CHANNELS 3 Zrotation Yrotation Xrotation
							End Site
							{
								OFFSET 8.1826 0.0000 0.0000
							}
						}
					}
				}
			}
			JOINT head     
			{
				OFFSET 0.0000 35.2030 0.0000
				CHANNELS 3 Zrotation Yrotation Xrotation
				End Site
				{
					OFFSET 0.0000 11.7343 0.0000
				}
			}
		}
		JOINT rfemur   
		{
			OFFSET -8.2817 0.0000 0.0000
			CHANNELS 3 Zrotation Yrotation Xrotation
			JOINT rtibia   
			{
				OFFSET 0.0000 -43.3627 0.0000
				CHANNELS 3 Zrotation Yrotation Xrotation
				JOINT rfoot    
				{
					OFFSET 0.0000 -38.2947 0.0000
					CHANNELS 3 Zrotation Yrotation Xrotation
					JOINT rtoes    
					{
						OFFSET 0.0000 0.0000 16.6054
						CHANNELS 3 Zrotation Yrotation Xrotation
						End Site
						{
							OFFSET 0.0000 0.0000 5.5351
						}
					}
				}
			}
		}
		JOINT lfemur   
		{
			OFFSET 8.2817 0.0000 0.0000
			CHANNELS 3 Zrotation Yrotation Xrotation
			JOINT ltibia   
			{
				OFFSET 0.0000 -43.3627 0.0000
				CHANNELS 3 Zrotation Yrotation Xrotation
				JOINT lfoot    
				{
					OFFSET 0.0000 -38.2947 0.0000
					CHANNELS 3 Zrotation Yrotation Xrotation
					JOINT ltoes    
					{
						OFFSET 0.0000 0.0000 16.6054
						CHANNELS 3 Zrotation Yrotation Xrotation
						End Site
						{
							OFFSET 0.0000 0.0000 5.5351
						}
					}
				}
			}
		}
	}
}
MOTION
Frames: 21
Frame Time: .0333333
134.7 78.52 18.944 -118.241 -80.8797 138.024 0 -0 0 -4.75762 -0.965071 18.1802 28.6524 -10.0635 4.23989e-05 48.6065 -0.769983 12.1813 -0 65.3467 -0 -1.55756 4.92963 -0.0670978 -18.2122 13.6594 -5.177e-05 -53.0965 0.977091 1.17129 0 -77.7927 0 2.16956 2.95971 0.0560987 6.47511 1.84385 -26.0284 8.79267 -9.43472 -46.9079 -0 -0 71.9957 4.36791e-06 -6.26645 -5.45795 0.598399 -2.86811e-06 -32.4909 -2.42142 14.184 -47.032 -0 -0 60.4924 -3.32368e-05 10.4185 -19.9452 -3.58902 1.15967e-05 -18.824 
134.21 78.568 18.924 -117.948 -80.8665 137.648 0 -0 0 -4.60072 -1.31867 18.1542 28.8865 -10.3543 5.42243e-05 48.1506 -1.21977 12.3347 -7.81007e-07 65.3387 -1.21798e-06 -1.62651 4.98855 -0.0708998 -18.1186 13.6588 2.95145e-05 -52.8062 0.631575 0.970462 -1.14547e-06 -78.1987 9.30883e-07 2.20806 2.93872 0.0565988 6.50061 2.06707 -25.8731 9.13077 -9.42178 -47.6937 -0 -0 71.0405 2.17797e-06 -6.32046 -5.40688 0.597997 -4.06067e-06 -32.6064 -2.32692 14.3455 -46.5009 -0 -0 60.3785 -2.17209e-05 10.3248 -20.1726 -3.59488 -1.73327e-05 -19.0819 
133.71 78.607 18.901 -117.646 -80.8579 137.256 0 -0 0 -4.4486 -1.68713 18.1273 29.1129 -10.6574 7.9317e-05 47.6919 -1.69929 12.4972 -8.62363e-07 65.3776 -5.53398e-07 -1.68604 5.05091 -0.0744019 -18.0243 13.6616 -9.26814e-05 -52.4973 0.309105 0.778805 4.93569e-07 -78.5995 -1.07961e-06 2.24319 2.92 0.0572002 6.52461 2.28596 -25.7284 9.45686 -9.41756 -48.4574 -0 -0 70.0464 -5.50411e-06 -6.34129 -5.28446 0.586388 -1.3751e-08 -32.8834 -2.2419 14.5058 -45.9783 -0 -0 60.2877 4.57528e-05 10.2278 -20.3908 -3.59729 -2.66556e-05 -19.3735 
133.2 78.637 18.877 -117.312 -80.8775 136.833 0 -0 0 -4.30395 -2.06889 18.0979 29.3293 -10.973 -8.29344e-06 47.2393 -2.20335 12.663 -0 65.4499 -0 -1.74144 5.11361 -0.0777976 -17.9309 13.6692 -3.74203e-05 -52.1669 0.00500327 0.60021 5.21693e-07 -78.9912 -1.10755e-06 2.27448 2.90807 0.0576989 6.55377 2.4982 -25.5942 9.76726 -9.42541 -49.1987 -0 -0 69.0233 4.15617e-06 -6.33417 -5.10974 0.566401 4.40112e-06 -33.2733 -2.16773 14.6597 -45.4646 -0 -0 60.221 2.4287e-05 10.1272 -20.602 -3.59623 2.68308e-05 -19.6911 
132.69 78.657 18.852 -116.952 -80.9097 136.378 0 -0 0 -4.16162 -2.46071 18.0689 29.5269 -11.2944 3.28576e-05 46.8064 -2.73682 12.8156 -8.67146e-07 65.5507 -5.58296e-07 -1.7879 5.16851 -0.0807002 -17.8349 13.6733 -5.11499e-05 -51.8269 -0.272002 0.427601 1.04586e-06 -79.3819 -1.26021e-06 2.2982 2.89763 0.0581005 6.59189 2.70159 -25.47 10.067 -9.44479 -49.9203 -0 -0 67.9707 -4.29426e-06 -6.31078 -4.89639 0.54079 1.37361e-06 -33.759 -2.09967 14.8092 -44.9591 -0 -0 60.1818 -6.86895e-05 10.0202 -20.8035 -3.59075 -5.73817e-06 -20.0507 
132.18 78.668 18.826 -116.566 -80.9544 135.892 0 -0 0 -4.02138 -2.85947 18.0425 29.7042 -11.6166 -1.6494e-05 46.4025 -3.30095 12.9437 -0 65.6648 -0 -1.82442 5.21001 -0.0830011 -17.7358 13.6714 -1.19161e-05 -51.4813 -0.520494 0.26 -1.3028e-06 -79.7587 1.0885e-06 2.31447 2.88834 0.0583999 6.64176 2.89606 -25.3547 10.3554 -9.47396 -50.6207 -0 -0 66.8992 -3.05839e-06 -6.28014 -4.66108 0.512399 -2.0607e-06 -34.2986 -2.03683 14.9547 -44.4603 -0 -0 60.1682 3.29886e-05 9.906 -20.9969 -3.58066 2.44946e-05 -20.4491 
131.67 78.67 18.798 -116.184 -81.0128 135.404 0 -0 0 -3.88873 -3.26272 18.0176 29.8597 -11.944 8.88753e-05 46.0316 -3.88089 13.0558 -5.6521e-07 65.7838 -8.73939e-07 -1.8621 5.23806 -0.0851999 -17.6373 13.6708 -0.000156847 -51.1241 -0.746093 0.101298 6.16037e-07 -80.1323 -1.20138e-06 2.32615 2.88674 0.0585993 6.70655 3.08306 -25.2454 10.6309 -9.51516 -51.3055 -0 -0 65.8124 -1.20626e-06 -6.24804 -4.41968 0.483401 -3.38939e-06 -34.8342 -1.9831 15.0949 -43.9677 -0 -0 60.1774 8.11097e-05 9.78683 -21.1862 -3.56722 -1.22684e-05 -20.8732 
131.15 78.663 18.768 -115.785 -81.0877 134.896 0 -0 0 -3.76081 -3.66682 17.9951 29.9922 -12.2697 -8.49958e-05 45.6989 -4.47989 13.1418 -8.04219e-07 65.9022 -1.24072e-06 -1.89472 5.24726 -0.0867964 -17.5356 13.6654 1.68046e-05 -50.7643 -0.942601 -0.0536939 0 -80.5123 0 2.33425 2.889 0.0589018 6.78493 3.26509 -25.138 10.8962 -9.56493 -51.9706 -0 -0 64.7143 -6.97532e-06 -6.22113 -4.17939 0.455202 -7.38107e-06 -35.352 -1.93383 15.2327 -43.4771 -0 -0 60.2074 2.18541e-05 9.66304 -21.372 -3.55075 3.8693e-06 -21.3247 
130.62 78.647 18.737 -115.412 -81.167 134.406 0 -0 0 -3.639 -4.06941 17.974 30.1006 -12.5952 0.000160152 45.4071 -5.08452 13.2097 -8.80349e-07 66.0042 -5.71752e-07 -1.92763 5.23732 -0.0882009 -17.4328 13.66 8.78094e-05 -50.4018 -1.1117 -0.204004 1.74865e-06 -80.8853 -2.05147e-06 2.34181 2.89738 0.0591999 6.87562 3.44599 -25.0313 11.1516 -9.61973 -52.6167 -0 -0 63.6067 8.14484e-07 -6.20195 -3.94489 0.428303 4.40032e-08 -35.8395 -1.88959 15.3691 -42.9889 -0 -0 60.2596 -5.05196e-05 9.53687 -21.5573 -3.53233 8.0787e-07 -21.7979 
130.09 78.623 18.701 -115.045 -81.2498 133.914 0 -0 0 -3.51655 -4.46591 17.9579 30.185 -12.9071 0.000127851 45.1615 -5.70925 13.2389 -5.74677e-07 66.1014 -8.83217e-07 -1.94325 5.20214 -0.0882978 -17.3241 13.651 -0.000112825 -50.0523 -1.24819 -0.35551 1.29389e-06 -81.2653 -1.50794e-06 2.34845 2.90426 0.0594978 6.97441 3.62898 -24.9212 11.4037 -9.67183 -53.2356 -0 -0 62.4849 7.31916e-08 -6.19458 -3.71271 0.402708 -2.38992e-06 -36.3095 -1.84021 15.5107 -42.4966 -0 -0 60.3302 7.04238e-05 9.40795 -21.7404 -3.51213 -1.91102e-05 -22.3212 
129.56 78.59 18.662 -114.718 -81.3377 133.458 0 -0 0 -3.40297 -4.85759 17.9428 30.2498 -13.2233 0.000167723 44.9502 -6.31757 13.2612 -5.76848e-07 66.1723 -8.85349e-07 -1.96019 5.15002 -0.0882007 -17.2169 13.6467 -3.3821e-05 -49.6991 -1.36039 -0.500404 -2.22268e-06 -81.6403 1.92001e-06 2.36079 2.91959 0.0601999 7.07966 3.81923 -24.8066 11.6479 -9.72474 -53.8322 -0 -0 61.3537 -8.62633e-07 -6.19325 -3.48323 0.377703 3.13752e-06 -36.7532 -1.7946 15.6552 -42.0016 -0 -0 60.4147 4.26215e-05 9.28275 -21.9259 -3.49258 1.42139e-05 -22.8672 
129.02 78.549 18.619 -114.431 -81.425 133.035 0 -0 0 -3.29435 -5.24088 17.9314 30.2952 -13.5271 0.000141885 44.7803 -6.92694 13.2619 -0 66.2231 -0 -1.96472 5.08156 -0.0872005 -17.1045 13.647 3.11683e-05 -49.3561 -1.44478 -0.642475 0 -82.0246 0 2.37843 2.9376 0.0610003 7.1876 4.01975 -24.6836 11.8879 -9.77211 -54.3961 -0 -0 60.2098 1.78244e-06 -6.19737 -3.24958 0.352702 9.59326e-07 -37.1842 -1.74545 15.8063 -41.5 -0 -0 60.5146 3.87871e-05 9.16154 -22.1138 -3.47415 1.23243e-05 -23.4416 
128.47 78.501 18.571 -114.209 -81.5142 132.668 0 -0 0 -3.19281 -5.61464 17.9223 30.3241 -13.8174 0.00021859 44.6499 -7.53574 13.2352 -5.79484e-07 66.2586 -8.87935e-07 -1.9468 4.99524 -0.0849001 -16.9881 13.6554 -0.000117171 -49.0237 -1.50591 -0.778526 -1.71857e-06 -82.4065 1.50466e-06 2.40096 2.9558 0.0619988 7.29541 4.23286 -24.5529 12.123 -9.81215 -54.9258 -0 -0 59.0548 3.61363e-07 -6.20583 -3.00499 0.326609 1.00745e-06 -37.6254 -1.69311 15.9651 -40.9909 -0 -0 60.626 2.27126e-05 9.04697 -22.2993 -3.45741 1.69149e-05 -24.0826 
127.92 78.446 18.52 -114.063 -81.6061 132.375 0 -0 0 -3.10666 -5.98106 17.911 30.3394 -14.111 -2.60295e-05 44.5469 -8.11592 13.2127 -0 66.2627 -0 -1.92527 4.90542 -0.0825039 -16.8754 13.6744 6.4777e-05 -48.6862 -1.54861 -0.902612 0 -82.7948 0 2.43094 2.98364 0.0632988 7.40228 4.45999 -24.4143 12.349 -9.85178 -55.4255 -0 -0 57.8931 4.95385e-06 -6.21292 -2.74719 0.298906 8.99315e-08 -38.0675 -1.64412 16.1219 -40.4745 -0 -0 60.7464 -4.31737e-05 8.94406 -22.4876 -3.44485 3.33507e-06 -24.7299 
127.36 78.383 18.465 -113.992 -81.7011 132.151 0 -0 0 -3.03383 -6.33702 17.9009 30.3447 -14.3898 5.44676e-05 44.4782 -8.68976 13.1679 -0 66.2506 -0 -1.88032 4.80962 -0.0790004 -16.7606 13.7061 5.59979e-05 -48.3568 -1.57681 -1.01374 2.38521e-06 -83.179 -2.68759e-06 2.46328 3.01214 0.0647986 7.50633 4.70042 -24.2682 12.5664 -9.88633 -55.8909 -0 -0 56.725 6.9175e-07 -6.2221 -2.47125 0.269301 -8.94158e-07 -38.5258 -1.5959 16.281 -39.9477 -0 -0 60.8754 -7.5727e-05 8.85167 -22.6723 -3.43523 1.22281e-06 -25.4324 
126.8 78.314 18.408 -114.009 -81.8104 132.012 0 -0 0 -2.97857 -6.68265 17.8897 30.3409 -14.6613 -0.000192879 44.4403 -9.24999 13.109 -0 66.2167 -0 -1.81706 4.71516 -0.0747975 -16.648 13.752 -0.000135427 -48.0251 -1.59572 -1.10743 0 -83.5584 0 2.49532 3.04433 0.0663014 7.60736 4.95156 -24.1173 12.7734 -9.92318 -56.3245 -0 -0 55.5612 -1.15665e-06 -6.23385 -2.17819 0.237898 -2.55264e-07 -38.9923 -1.55176 16.4341 -39.4118 -0 -0 61.0091 7.30469e-08 8.77111 -22.8529 -3.42919 -2.75936e-06 -26.1694 
126.22 78.239 18.349 -114.116 -81.9309 131.961 0 -0 0 -2.94288 -7.01713 17.8761 30.328 -14.9233 0.000136487 44.4327 -9.79735 13.0306 -5.76779e-07 66.1691 -8.85286e-07 -1.73648 4.62679 -0.0701992 -16.5369 13.8108 4.98591e-05 -47.691 -1.60989 -1.18058 -2.12389e-06 -83.9319 1.91014e-06 2.52244 3.07917 0.0677972 7.70515 5.2099 -23.9642 12.9675 -9.96366 -56.7312 -0 -0 54.4086 6.4269e-07 -6.25193 -1.87151 0.205008 1.30279e-06 -39.4561 -1.51565 16.5774 -38.8698 -0 -0 61.1489 -6.79884e-05 8.70228 -23.0289 -3.42656 2.12877e-06 -26.9348 
125.65 78.157 18.289 -114.336 -82.0647 132.021 0 -0 0 -2.92833 -7.33816 17.861 30.3109 -15.1741 0.000192867 44.4557 -10.3396 12.9242 -5.74941e-07 66.1119 -8.83467e-07 -1.63559 4.54531 -0.0649001 -16.4285 13.8835 -7.94158e-06 -47.3559 -1.62648 -1.23005 1.4417e-06 -84.2955 -1.59282e-06 2.53947 3.11389 0.0689983 7.79994 5.47127 -23.8139 13.1462 -10.0118 -57.1124 -0 -0 53.2749 1.82368e-06 -6.28085 -1.55772 0.171405 2.06409e-06 -39.9063 -1.4887 16.707 -38.3154 -0 -0 61.2885 -7.12206e-05 8.64375 -23.1945 -3.42634 3.51109e-06 -27.7433 
125.06 78.07 18.228 -114.652 -82.2133 132.179 0 -0 0 -2.93246 -7.64668 17.8406 30.2882 -15.4201 -1.59343e-05 44.5104 -10.8689 12.7966 -5.7276e-07 66.0363 -8.81344e-07 -1.5268 4.47796 -0.0597005 -16.3288 13.9668 -4.0819e-05 -47.0112 -1.6432 -1.25629 1.38406e-06 -84.6598 -1.9678e-06 2.54276 3.15182 0.0699986 7.89159 5.73007 -23.6679 13.3103 -10.072 -57.4788 -0 -0 52.1682 -3.57344e-06 -6.32366 -1.24615 0.1381 -1.01551e-07 -40.3201 -1.47433 16.8147 -37.7607 -0 -0 61.4318 6.14764e-05 8.59503 -23.3525 -3.42879 -9.29464e-06 -28.539 
124.47 77.978 18.168 -115.051 -82.3737 132.426 0 -0 0 -2.95153 -7.94065 17.8132 30.2603 -15.655 5.49478e-05 44.595 -11.3949 12.6368 -0 65.9576 -0 -1.40853 4.42262 -0.0544016 -16.2347 14.0585 -7.70608e-05 -46.6648 -1.6642 -1.25854 2.57357e-06 -85.0038 -3.12433e-06 2.52839 3.18952 0.0704003 7.97829 5.98108 -23.53 13.4594 -10.1421 -57.8352 -0 -0 51.0967 5.46033e-07 -6.38487 -0.946516 0.105899 3.24569e-07 -40.6831 -1.47099 16.899 -37.2029 -0 -0 61.575 -8.0096e-06 8.55312 -23.5005 -3.43207 2.34745e-05 -29.3333 
123.88 77.882 18.108 -115.511 -82.5598 132.742 0 -0 0 -2.97704 -8.22 17.7764 30.226 -15.885 7.95933e-05 44.7115 -11.9105 12.4484 -8.76331e-07 65.8701 -5.67668e-07 -1.29154 4.38268 -0.049397 -16.1536 14.1515 -0.000123562 -46.3125 -1.68309 -1.24109 1.78193e-06 -85.3371 -1.933e-06 2.49448 3.22864 0.0702996 8.05774 6.21965 -23.4049 13.5954 -10.222 -58.1845 -0 -0 50.0613 5.60103e-07 -6.46581 -0.668303 0.0756989 5.24371e-08 -40.9852 -1.47621 16.9586 -36.6491 -0 -0 61.7185 5.61234e-05 8.51533 -23.6401 -3.43583 -2.02311e-05 -30.1066 
